HIERARCHY
ROOT Pelvis
{
	OFFSET 0.000000 0.963103 0.000000
	CHANNELS 6 Xposition Yposition Zposition Zrotation Yrotation Xrotation 
	JOINT L_Hip
	{
		OFFSET 0.065057 -0.078762 -0.016404
		CHANNELS 3 Zrotation Yrotation Xrotation
		JOINT L_Knee
		{
			OFFSET 0.072944 -0.382791 0.057965
			CHANNELS 3 Zrotation Yrotation Xrotation
			JOINT L_Ankle
			{
				OFFSET 0.041989 -0.431196 0.001038
				CHANNELS 3 Zrotation Yrotation Xrotation
				End Site #name: L_Foot
				{
					OFFSET 0.047514 -0.046739 0.122985
				}
			}
		}
	}
	JOINT R_Hip
	{
		OFFSET -0.061588 -0.087953 -0.023140
		CHANNELS 3 Zrotation Yrotation Xrotation
		JOINT R_Knee
		{
			OFFSET -0.061551 -0.383493 -0.016391
			CHANNELS 3 Zrotation Yrotation Xrotation
			JOINT R_Ankle
			{
				OFFSET -0.002249 -0.422855 -0.084593
				CHANNELS 3 Zrotation Yrotation Xrotation
				End Site #name: R_Foot
				{
					OFFSET -0.084965 -0.067069 0.106793
				}
			}
		}
	}
	JOINT Spine1
	{
		OFFSET -0.001043 0.131061 -0.010366
		CHANNELS 3 Zrotation Yrotation Xrotation
		JOINT Spine2
		{
			OFFSET -0.009117 0.140823 0.017223
			CHANNELS 3 Zrotation Yrotation Xrotation
			JOINT Spine3
			{
				OFFSET -0.002017 0.050140 0.020369
				CHANNELS 3 Zrotation Yrotation Xrotation
				JOINT Neck
				{
					OFFSET 0.005246 0.205831 -0.076612
					CHANNELS 3 Zrotation Yrotation Xrotation
					End Site #name: Head
					{
						OFFSET 0.000608 0.098987 0.046796
					}
				}
				JOINT L_Collar
				{
					OFFSET 0.075075 0.101629 -0.051003
					CHANNELS 3 Zrotation Yrotation Xrotation
					JOINT L_Shoulder
					{
						OFFSET 0.119944 0.027128 -0.052493
						CHANNELS 3 Zrotation Yrotation Xrotation
						JOINT L_Elbow
						{
							OFFSET 0.238323 -0.095461 -0.006045
							CHANNELS 3 Zrotation Yrotation Xrotation
							End Site #name: L_Wrist
							{
								OFFSET 0.016694 0.256160 0.088356
							}
						}
					}
				}
				JOINT R_Collar
				{
					OFFSET -0.075090 0.111305 -0.048277
					CHANNELS 3 Zrotation Yrotation Xrotation
					JOINT R_Shoulder
					{
						OFFSET -0.116715 0.019072 -0.043244
						CHANNELS 3 Zrotation Yrotation Xrotation
						JOINT R_Elbow
						{
							OFFSET -0.242788 -0.088567 0.048673
							CHANNELS 3 Zrotation Yrotation Xrotation
							End Site #name: R_Wrist
							{
								OFFSET 0.047329 0.262259 0.058917
							}
						}
					}
				}
			}
		}
	}
}
MOTION
Frames: 23
Frame Time: 0.041667
-0.071652 0.947559 -0.031260 -7.517935 1.780915 -0.463993 11.565637 0.845357 -10.131570 -1.705675 1.743944 15.460219 2.024974 1.821472 -3.629153 -3.813472 -0.547517 5.595390 -1.120994 0.315765 18.098101 15.406731 4.097476 14.509587 -6.114961 1.024821 2.286503 0.874302 -0.286287 2.178421 7.253790 2.579625 -1.203932 5.431121 -2.004004 -9.130243 -7.449910 -5.828725 -1.625836 -8.504465 0.675731 0.004176 19.602149 -7.424216 2.008710 7.097456 -0.222350 -2.708180 12.261156 -11.200588 5.253243 -13.780550 3.228718 -3.548346 
-0.104704 0.936715 -0.057515 -7.348100 1.246882 0.058551 13.490126 1.188360 -11.794690 -0.861590 1.579702 14.988029 0.656067 0.473342 -1.250206 -2.322478 -1.208605 9.304554 -1.011022 0.242414 10.200818 10.279690 6.027189 7.670705 -6.627181 1.176986 2.914478 -0.039481 0.134372 2.882377 6.602307 2.501304 -1.483290 5.675372 -1.997637 -10.725979 -8.213136 -6.200716 -1.823884 -8.255785 0.278539 -0.114985 20.831161 -7.529662 0.680154 7.143726 2.445265 -2.136430 12.408054 -9.359222 4.785327 -13.853126 3.242732 -3.558650 
-0.139586 0.928020 -0.088765 -7.154901 0.831514 0.353885 15.416216 1.612738 -13.021633 -0.246225 1.320975 13.221104 -1.104841 0.055075 2.889081 -0.377163 -1.597520 10.204479 -0.482811 0.090720 6.183877 4.432547 6.111764 0.894435 -6.329950 1.264125 3.991177 -0.834494 0.501019 3.283634 5.788323 2.325616 -1.564639 5.173958 -1.748576 -11.904386 -9.176040 -6.432685 -2.142619 -8.345882 -0.042446 -0.219571 21.711930 -7.728181 0.225781 6.975623 5.547093 -1.380748 11.586823 -7.236608 4.136507 -14.492565 3.320116 -2.648801 
-0.174013 0.926444 -0.122716 -6.882301 0.690986 0.661102 17.057336 1.998784 -14.312126 0.479398 0.978285 10.462574 -3.678537 -0.196729 8.994327 1.874566 -1.744883 9.332565 -0.086688 0.000961 3.590174 -0.705999 4.299973 -4.133002 -5.545082 1.257312 5.015415 -1.768769 0.911363 3.263199 5.180112 2.238397 -1.202204 4.147725 -1.340484 -12.922176 -10.125697 -6.708764 -2.440051 -8.322830 0.111530 -0.169977 21.888392 -7.941028 0.745149 6.352257 8.811897 -0.439869 9.981800 -4.794011 3.259749 -14.456388 3.226915 -0.774814 
-0.203898 0.932133 -0.155848 -6.180861 0.719846 1.153417 17.338516 2.016015 -16.012407 -1.430425 1.001231 9.116580 -2.585889 3.418585 10.532718 3.248031 -1.428644 6.768556 -0.098420 0.004003 3.520997 -2.895298 2.290882 -5.473877 -5.077137 1.241818 5.583533 -2.543555 1.236914 3.028991 4.892813 2.268494 -0.841524 3.731342 -1.151874 -14.029233 -10.336514 -6.949005 -2.447898 -8.709378 0.066538 -0.193852 21.471128 -8.020584 1.579440 5.363502 11.489006 0.455360 8.288617 -2.945295 2.472772 -14.043137 3.018991 1.632660 
-0.225468 0.941623 -0.184392 -5.441378 0.803032 1.045493 15.652126 1.428351 -17.798818 -4.886161 2.033420 14.472186 0.635511 7.161254 6.537019 3.825265 -1.053167 4.547568 -0.039269 -0.015774 4.719254 -3.587138 1.069711 -5.454890 -4.710257 1.268308 6.415000 -3.037041 1.420341 2.575398 5.495310 2.651316 -0.715501 3.267048 -0.992088 -14.194956 -10.172434 -7.257031 -2.282327 -8.840010 0.529562 -0.051889 20.838323 -8.021224 2.452164 4.407290 12.988399 1.050542 6.418321 -1.755042 1.798524 -13.898104 2.823256 4.741788 
-0.239621 0.951172 -0.206814 -4.904092 0.880215 0.393608 12.302404 0.267428 -19.193949 -9.211854 4.556987 25.149161 4.139342 10.521363 0.056942 3.993909 -0.832859 3.358850 0.015115 -0.034056 5.626586 -2.846359 0.423776 -3.981413 -4.085172 1.208147 6.929249 -3.084322 1.389578 1.871357 6.356301 3.207892 -0.241456 3.166907 -0.960047 -14.169360 -9.568938 -7.058055 -2.104091 -8.851031 1.063378 0.115088 19.937405 -7.947039 3.477589 4.041865 14.067868 1.382172 5.672439 -1.155434 1.478571 -14.404703 2.845614 7.042022 
-0.247905 0.963434 -0.222820 -4.878128 1.012580 -0.380917 7.740272 -1.099601 -18.239566 -11.361382 6.845945 33.644961 5.678320 11.719653 -3.729386 4.123472 -0.762687 2.956779 0.250304 -0.095740 5.947584 -0.292033 0.198249 -0.523971 -2.920921 0.938082 6.341944 -2.658260 1.168983 1.300322 7.263298 3.665432 0.374187 2.918139 -0.914434 -13.097555 -8.045062 -6.506018 -1.663319 -9.184506 1.951430 0.379127 18.521565 -7.580057 4.242603 4.501304 14.037624 1.256496 5.962888 -0.929368 1.461656 -15.398161 3.059616 8.770995 
-0.252106 0.972545 -0.233282 -6.092195 1.404314 -0.648296 3.866685 -1.348217 -12.203818 -9.545282 5.763276 31.001440 5.325510 10.706033 -3.838449 4.963970 -0.524280 1.511084 0.878759 -0.286719 8.208028 3.216852 1.215870 3.011079 -1.701072 0.555641 4.326141 -0.873149 0.448190 1.888173 7.760469 3.730229 0.213594 2.434576 -0.818405 -10.783794 -5.796649 -6.137289 -0.868923 -9.914844 3.523798 0.824718 17.241975 -7.061045 4.230836 5.632602 11.888273 0.469772 7.490744 -0.752830 1.690935 -15.548562 3.108096 8.680250 
-0.254305 0.978079 -0.241212 -7.337542 1.925559 -0.972090 2.637035 -0.709387 -6.592277 -6.893604 3.714229 23.229756 5.583463 10.193383 -5.419895 5.565128 -0.155346 -0.401160 1.213833 -0.443899 12.003037 6.780961 3.053119 5.829972 -1.523689 0.438228 3.202455 1.049257 -0.383958 1.418965 8.267336 3.621008 0.632078 2.749101 -0.972523 -9.566510 -3.969583 -6.023577 -0.170662 -9.422213 4.115593 1.035219 15.727225 -6.375355 3.888322 6.720176 8.692800 -0.580154 8.381728 -0.856071 1.885170 -15.210255 3.073679 7.046790 
-0.255982 0.979152 -0.249192 -7.937300 2.475603 -1.254279 2.161165 -0.214147 -3.151966 -4.865829 2.326759 16.542876 5.910656 9.858064 -6.990339 5.279973 0.175311 -1.935673 1.473195 -0.595815 15.569612 9.353194 4.702056 7.562545 -2.157787 0.483986 2.609281 2.516848 -1.009363 0.838608 8.674535 3.539610 0.851196 2.753108 -0.992713 -9.003355 -2.972647 -6.393611 0.322144 -8.593354 4.171121 1.105261 14.830264 -5.900531 3.338342 7.163237 5.890346 -1.365086 8.881861 -1.373165 2.123176 -14.793147 3.040040 5.140913 
-0.258205 0.975903 -0.259019 -7.990094 2.922321 -1.429310 1.827885 -0.043976 -1.837208 -3.896131 1.659510 12.612973 5.963859 9.671975 -7.401456 5.015973 0.337283 -2.690495 1.249271 -0.548286 17.234682 9.762402 5.822187 7.236759 -2.780866 0.559738 2.439912 3.156947 -1.278395 0.358277 8.790959 3.487971 0.951505 2.537863 -0.911041 -8.998396 -2.873183 -6.584082 0.411068 -8.084491 3.490134 0.919526 14.825433 -5.849228 3.110096 7.012138 4.123789 -1.714338 9.142350 -2.120764 2.379946 -14.831247 3.125501 3.413932 
-0.260328 0.971135 -0.271011 -7.583489 3.217190 -1.438240 1.467383 -0.190845 -2.322775 -3.742503 1.464444 11.261111 5.974563 9.819983 -7.261708 5.061440 0.362711 -2.818150 0.574178 -0.300344 16.961960 8.323671 6.676479 5.029441 -3.213694 0.648560 2.718934 3.162466 -1.284036 -0.061067 8.601856 3.491650 0.961125 2.293044 -0.807870 -9.351254 -3.495541 -6.337924 0.101402 -8.299111 2.608425 0.626264 15.648510 -6.176859 3.146247 6.584047 3.706093 -1.658467 8.980319 -2.631146 2.496938 -15.426691 3.313813 2.360694 
-0.261859 0.964300 -0.285368 -6.630653 3.279976 -1.323415 0.990515 -0.569942 -3.944826 -4.324636 1.616812 11.957722 6.139154 10.189251 -7.398588 5.055235 0.301122 -2.518470 -0.357689 0.038829 15.272199 5.131986 6.736022 1.292246 -3.245670 0.727953 3.510388 2.490167 -1.019273 -0.567666 8.167616 3.546966 1.068376 1.876557 -0.640916 -9.765464 -4.681689 -5.670803 -0.551473 -8.965943 1.718778 0.315808 16.977546 -6.671178 3.046102 5.770404 4.805442 -1.138848 8.189657 -2.578214 2.349607 -15.867706 3.432003 1.986636 
-0.261988 0.956505 -0.302251 -5.338302 3.092318 -1.294493 0.571554 -1.098224 -6.334219 -5.784326 2.134473 14.385271 6.314094 10.652609 -7.458664 4.511968 0.318429 -2.549222 -0.855475 0.205507 13.657126 1.459080 5.485165 -2.269465 -2.586475 0.751399 4.921105 1.166049 -0.496178 -0.801716 7.675375 3.702782 1.281515 1.164539 -0.362229 -10.550027 -6.350809 -4.790132 -1.477834 -9.798021 1.124977 0.101539 18.320748 -7.145404 2.845844 4.698979 7.373681 -0.239839 6.744660 -1.752028 1.855282 -15.778202 3.400581 2.285409 
-0.260306 0.953246 -0.320357 -4.097446 2.876866 -1.294871 0.776638 -1.561446 -9.027328 -8.107172 2.943425 17.366488 6.314822 11.327631 -6.604260 3.396200 0.446646 -3.103353 -0.808447 0.188275 12.806274 -0.396048 4.377178 -3.796409 -1.636220 0.705702 6.322821 -0.365899 0.120347 -0.645666 7.460005 4.007576 1.299799 0.004573 0.064863 -11.290502 -7.800933 -3.974107 -2.319750 -10.592891 1.302638 0.126814 19.218762 -7.487901 2.815816 3.651568 10.245374 0.678721 5.398702 -1.099588 1.410784 -15.599388 3.331004 3.027856 
-0.256587 0.954604 -0.337167 -2.907702 2.756075 -1.165911 1.692220 -1.880968 -11.975159 -10.687402 3.961718 20.493383 6.036150 11.415232 -5.461516 1.770323 0.606961 -3.874663 -0.562005 0.109720 12.078344 -0.751678 3.623055 -3.700228 -0.984137 0.655609 7.215472 -2.004905 0.803876 -0.185193 7.820569 4.510107 1.094600 -1.331869 0.539094 -11.712296 -9.016428 -3.292480 -3.041419 -10.951899 2.062660 0.336788 19.642099 -7.727343 3.094253 2.727677 12.666807 1.434750 4.242134 -0.895191 1.130707 -15.341013 3.213505 4.420992 
-0.249887 0.961149 -0.349868 -1.674714 2.650575 -0.759059 4.062418 -1.725588 -14.866423 -12.515369 4.834822 22.962649 5.122700 11.438616 -2.102955 -0.013729 0.642245 -4.005315 -0.559485 0.109490 9.877448 -0.025347 2.581237 -2.013467 -0.783150 0.661033 7.803801 -3.606655 1.443385 -0.312296 8.532815 5.061239 1.306344 -2.575019 0.962592 -12.500580 -10.193635 -2.163727 -3.900005 -10.437841 3.917330 0.912076 19.979179 -7.846522 3.043408 2.055155 14.237073 1.928265 3.397061 -1.334040 1.118814 -15.530439 3.194868 6.234135 
-0.239353 0.964533 -0.356547 -0.901527 2.633774 -0.351193 6.322339 -1.143577 -15.355868 -11.583805 4.607353 22.804128 5.062847 12.578393 -0.196109 -1.536967 0.662736 -4.073991 -0.720283 0.154435 8.354686 0.969377 2.316439 -0.572371 -0.926979 0.681081 7.701163 -4.025065 1.629722 -0.101777 8.598587 5.300722 1.304669 -3.425947 1.253121 -12.623317 -10.310023 -0.878550 -4.347648 -9.674641 5.257931 1.368242 19.950637 -7.660756 2.393732 1.727104 14.815935 2.126607 3.380598 -1.680888 1.231856 -15.691343 3.208336 7.091012 
-0.224553 0.966624 -0.359097 -0.424624 2.646723 0.061616 8.588601 -0.399407 -14.645184 -8.695122 3.748329 21.344382 4.431966 12.994288 2.794962 -2.913730 0.643502 -3.866986 -1.081969 0.247890 6.894397 2.190357 2.844292 0.537254 -0.883002 0.636953 7.219302 -3.975176 1.614291 -0.041536 8.496968 5.407595 1.446344 -4.280074 1.559911 -12.273181 -9.945887 0.622109 -4.636319 -8.362255 6.339858 1.809909 19.004097 -7.095907 1.621298 1.527933 14.691679 2.151972 3.296327 -1.955236 1.308762 -15.800353 3.217349 7.714489 
-0.203698 0.968807 -0.357613 -0.302413 2.601412 0.473019 10.219415 0.226365 -13.046831 -5.804239 2.782058 18.635252 2.759635 11.508853 6.273754 -4.285862 0.636084 -3.715976 -1.495327 0.348828 5.953220 3.685080 3.438596 1.908272 -0.252389 0.450645 6.218575 -3.681498 1.509358 0.147134 8.348878 5.428496 1.577386 -5.306393 1.962719 -11.288123 -9.237666 2.130420 -4.751100 -7.132509 7.264001 2.219767 17.358671 -6.413079 1.358806 1.192087 14.093615 2.120789 2.926372 -2.422547 1.401579 -15.656948 3.183986 7.491381 
-0.175813 0.966977 -0.352501 -0.304509 2.637433 0.854807 10.645860 0.525945 -11.148780 -4.609363 2.093113 15.147743 1.337011 9.903969 8.387698 -5.977404 0.680123 -3.979667 -1.906101 0.460536 6.529479 5.472114 3.667350 3.860100 0.596398 0.234516 5.140212 -3.466935 1.399342 -0.147174 8.290926 5.357173 2.020299 -5.449000 2.037080 -10.802055 -8.423514 3.193269 -4.669049 -6.879388 8.288761 2.584675 16.084487 -6.041671 1.811086 0.864269 12.944349 1.987814 3.050247 -3.523816 1.797144 -16.033487 3.335162 6.181795 
-0.142270 0.965456 -0.345502 -0.553944 2.723395 0.983244 9.782304 0.446664 -9.851238 -4.579713 1.850692 13.443683 0.520918 8.266460 8.438966 -7.479708 0.763027 -4.751143 -2.670039 0.701799 8.710128 8.064496 4.245886 6.434171 1.280237 0.086921 4.536408 -3.037149 1.186134 -0.693070 8.406209 5.299320 2.354106 -5.424236 2.037900 -10.597524 -7.985317 3.809147 -4.631419 -6.829135 8.309792 2.596937 15.274036 -5.950986 2.782651 0.658497 11.264805 1.732413 2.824142 -4.796766 2.197246 -15.636672 3.290587 4.403624 
